<svg width="64" height="64" viewBox="0 0 64 64" fill="none" xmlns="http://www.w3.org/2000/svg">
<circle r="32" transform="matrix(1 0 0 -1 32 32)" fill="#E1E1E1"/>
<path fill-rule="evenodd" clip-rule="evenodd" d="M22.6667 31.8319C22.6667 32.1413 22.7896 32.438 23.0084 32.6568C23.2272 32.8756 23.5239 32.9985 23.8334 32.9985H37.3504L32.3407 38.0059C32.1216 38.2249 31.9985 38.522 31.9985 38.8319C31.9985 39.1417 32.1216 39.4388 32.3407 39.6579C32.5598 39.8769 32.8569 40 33.1667 40C33.4765 40 33.7736 39.8769 33.9927 39.6579L40.9927 32.6579C41.1013 32.5495 41.1875 32.4207 41.2464 32.279C41.3052 32.1373 41.3354 31.9853 41.3354 31.8319C41.3354 31.6784 41.3052 31.5265 41.2464 31.3847C41.1875 31.243 41.1013 31.1142 40.9927 31.0059L33.9927 24.0059C33.7736 23.7868 33.4765 23.6637 33.1667 23.6637C32.8569 23.6637 32.5598 23.7868 32.3407 24.0059C32.1216 24.2249 31.9985 24.5221 31.9985 24.8319C31.9985 25.1417 32.1216 25.4388 32.3407 25.6579L37.3504 30.6652H23.8334C23.5239 30.6652 23.2272 30.7881 23.0084 31.0069C22.7896 31.2257 22.6667 31.5224 22.6667 31.8319Z" fill="black"/>
</svg>
