<svg width="64" height="64" viewBox="0 0 64 64" fill="none" xmlns="http://www.w3.org/2000/svg">
<circle cx="32" cy="32" r="32" transform="rotate(180 32 32)" fill="#E1E1E1"/>
<path fill-rule="evenodd" clip-rule="evenodd" d="M41.3333 31.8319C41.3333 32.1413 41.2104 32.438 40.9916 32.6568C40.7728 32.8756 40.4761 32.9985 40.1666 32.9985H26.6496L31.6593 38.0059C31.8784 38.2249 32.0015 38.522 32.0015 38.8319C32.0015 39.1417 31.8784 39.4388 31.6593 39.6579C31.4402 39.8769 31.1431 40 30.8333 40C30.5235 40 30.2264 39.8769 30.0073 39.6579L23.0073 32.6579C22.8987 32.5495 22.8125 32.4207 22.7536 32.279C22.6948 32.1373 22.6646 31.9853 22.6646 31.8319C22.6646 31.6784 22.6948 31.5265 22.7536 31.3847C22.8125 31.243 22.8987 31.1142 23.0073 31.0059L30.0073 24.0059C30.2264 23.7868 30.5235 23.6637 30.8333 23.6637C31.1431 23.6637 31.4402 23.7868 31.6593 24.0059C31.8784 24.2249 32.0015 24.5221 32.0015 24.8319C32.0015 25.1417 31.8784 25.4388 31.6593 25.6579L26.6496 30.6652H40.1666C40.4761 30.6652 40.7728 30.7881 40.9916 31.0069C41.2104 31.2257 41.3333 31.5224 41.3333 31.8319Z" fill="black"/>
</svg>
