<svg width="147" height="32" viewBox="0 0 147 32" fill="none" xmlns="http://www.w3.org/2000/svg">
<path d="M16 32C24.8366 32 32 24.8366 32 16C32 7.16344 24.8366 0 16 0C7.16344 0 0 7.16344 0 16C0 24.8366 7.16344 32 16 32Z" fill="#FAFAFA"/>
<path fill-rule="evenodd" clip-rule="evenodd" d="M19.5504 29.3908C24.0771 28.1753 27.4749 24.845 28.9691 20.7448C30.2821 17.2924 30.1925 13.3116 28.4493 9.77005C27.8543 10.1368 27.1173 10.5088 26.2153 10.8532C26.5946 10.2838 27.1501 9.41107 27.7126 8.45686C25.4316 4.85888 21.7367 2.68261 17.8192 2.25755C16.0556 2.01845 14.2164 2.11865 12.3898 2.60915C5.01017 4.59079 0.630804 12.1925 2.60815 19.5881C2.61907 19.6289 2.63016 19.6696 2.64142 19.7103C10.8993 17.7333 15.1408 16.3157 16.4119 15.7492L15.0342 14.5617L15.4689 14.29L17.6402 15.3534L18.8357 14.6063C18.9222 14.5523 19.0266 14.5349 19.1258 14.5579C19.2251 14.581 19.3112 14.6426 19.3651 14.7293C19.4191 14.816 19.4364 14.9205 19.4134 15.02C19.3904 15.1195 19.3289 15.2057 19.2424 15.2598L18.0469 16.007L18.0445 18.4289L17.6097 18.7006L17.1613 16.9745C13.3823 20.2101 8.66044 22.9095 5.14688 24.6393C8.47265 28.8194 14.0683 30.863 19.5504 29.3908Z" fill="url(#paint0_radial)"/>
<path d="M53.5404 7.17148V9.84084H48.325V24.1429H45.2153V9.84084H40V7.17148H53.5404Z" fill="#233248"/>
<path d="M60.57 7C63.0187 7 64.8876 7.449 66.1774 8.34693C67.4828 9.24493 68.1363 10.6164 68.1363 12.4612C68.1363 14.7633 67.0015 16.3224 64.7326 17.1388C65.0426 17.5143 65.3939 17.9714 65.7853 18.5102C66.1774 19.049 66.5773 19.6367 66.9851 20.2735C67.3936 20.8939 67.7849 21.5388 68.1606 22.2081C68.5362 22.8612 68.8704 23.5061 69.1647 24.1429H65.7117C65.4018 23.5551 65.0669 22.9674 64.7083 22.3796C64.3491 21.7755 63.9813 21.1959 63.6064 20.6408C63.2472 20.0694 62.888 19.5388 62.5287 19.049C62.1697 18.5429 61.8351 18.0939 61.5249 17.7021C61.2964 17.7184 61.1005 17.7265 60.9372 17.7265C60.7741 17.7265 60.6189 17.7265 60.472 17.7265H58.9785V24.1429H55.8933V7.41636C56.6442 7.25307 57.444 7.14693 58.2929 7.09793C59.1416 7.03264 59.9007 7 60.57 7ZM60.7903 9.66936C60.1374 9.66936 59.5334 9.69386 58.9785 9.74286V15.2286H60.3251C61.076 15.2286 61.7371 15.1878 62.3084 15.1061C62.8801 15.0245 63.3529 14.8776 63.7285 14.6653C64.1206 14.4531 64.4141 14.1674 64.6098 13.8081C64.8062 13.449 64.904 12.9919 64.904 12.4367C64.904 11.9143 64.8062 11.4735 64.6098 11.1143C64.4141 10.7551 64.1285 10.4694 63.7528 10.2571C63.3943 10.0449 62.9615 9.89793 62.4553 9.81636C61.9493 9.71836 61.3943 9.66936 60.7903 9.66936Z" fill="#233248"/>
<path d="M83.4399 24.1429C83.2114 23.4736 82.975 22.8123 82.73 22.1593C82.4851 21.5062 82.2487 20.8368 82.0202 20.1511H74.87C74.6415 20.8368 74.4051 21.5143 74.1602 22.1837C73.9316 22.8368 73.7031 23.4898 73.4746 24.1429H70.2673C70.9036 22.3307 71.5078 20.6572 72.0791 19.1225C72.6504 17.5878 73.2053 16.1348 73.7438 14.7633C74.2987 13.3919 74.8457 12.0858 75.3842 10.845C75.9234 9.60412 76.4783 8.37962 77.0496 7.17148H79.9634C80.5347 8.37962 81.0896 9.60412 81.6281 10.845C82.1673 12.0858 82.7057 13.3919 83.2442 14.7633C83.7991 16.1348 84.3626 17.5878 84.9339 19.1225C85.5217 20.6572 86.1337 22.3307 86.77 24.1429H83.4399ZM78.4451 10.4531C78.0694 11.3184 77.6374 12.3715 77.1475 13.6123C76.674 14.8531 76.1762 16.2001 75.6542 17.6531H81.2367C80.714 16.2001 80.2083 14.845 79.7184 13.5878C79.2285 12.3307 78.8043 11.2858 78.4451 10.4531Z" fill="#233248"/>
<path d="M92.424 24.1429C91.2 21.498 90.0166 18.7307 88.874 15.8408C87.7477 12.951 86.6944 10.0613 85.7153 7.17148H89.1189C89.5103 8.31434 89.9102 9.48169 90.3187 10.6736C90.7265 11.8653 91.1343 13.0408 91.5428 14.2C91.9505 15.3429 92.359 16.4531 92.7668 17.5307C93.1753 18.6082 93.5752 19.596 93.9666 20.4939C94.3423 19.596 94.7336 18.6164 95.1421 17.5551C95.5499 16.4776 95.9584 15.3593 96.3662 14.2C96.7904 13.0408 97.2067 11.8653 97.6152 10.6736C98.023 9.48169 98.4151 8.31434 98.79 7.17148H102.096C101.1 10.0613 100.039 12.951 98.9128 15.8408C97.7866 18.7307 96.6111 21.498 95.3871 24.1429H92.424Z" fill="#233248"/>
<path d="M104.29 24.1429V7.17148H115.186V9.79191H107.376V13.9796H114.329V16.5511H107.376V21.5225H115.774V24.1429H104.29Z" fill="#233248"/>
<path d="M129.362 21.4736V24.1429H118.637V7.17148H121.722V21.4736H129.362Z" fill="#233248"/>
<path d="M143.602 24.1429C143.373 23.4736 143.136 22.8123 142.891 22.1593C142.646 21.5062 142.41 20.8368 142.181 20.1511H135.032C134.803 20.8368 134.566 21.5143 134.321 22.1837C134.093 22.8368 133.864 23.4898 133.636 24.1429H130.429C131.065 22.3307 131.669 20.6572 132.24 19.1225C132.812 17.5878 133.367 16.1348 133.905 14.7633C134.461 13.3919 135.007 12.0858 135.546 10.845C136.085 9.60412 136.64 8.37962 137.211 7.17148H140.125C140.696 8.37962 141.251 9.60412 141.789 10.845C142.329 12.0858 142.867 13.3919 143.405 14.7633C143.96 16.1348 144.524 17.5878 145.095 19.1225C145.683 20.6572 146.295 22.3307 146.931 24.1429H143.602ZM138.606 10.4531C138.231 11.3184 137.799 12.3715 137.309 13.6123C136.835 14.8531 136.338 16.2001 135.815 17.6531H141.398C140.875 16.2001 140.37 14.845 139.88 13.5878C139.39 12.3307 138.966 11.2858 138.606 10.4531Z" fill="#233248"/>
<defs>
<radialGradient id="paint0_radial" cx="0" cy="0" r="1" gradientUnits="userSpaceOnUse" gradientTransform="translate(31.1225 6.30388) rotate(151.488) scale(28.6417 23.9425)">
<stop offset="0.284375" stop-color="#53DD93"/>
<stop offset="0.64375" stop-color="#48C5C5"/>
<stop offset="1" stop-color="#1C7ED6"/>
</radialGradient>
</defs>
</svg>
