<svg width="16" height="18" viewBox="0 0 16 18" fill="none" xmlns="http://www.w3.org/2000/svg">
<path d="M15.503 11.4828L15.4626 10.2707L11.8263 10.4L11.4949 10.2061V7.57172L11.8263 7.37778L15.4626 7.50707L15.503 6.29495L13.8061 6.23434L16 4.9697L15.3939 3.91919L13.2 5.18788L14.0081 3.68485L12.9374 3.11919L11.2283 6.35152L10.897 6.54141L8.60606 5.2V4.8202L10.5333 1.73333L9.50707 1.09495L8.60606 2.53333V0H7.39394V2.53333L6.49293 1.09495L5.46667 1.73333L7.39394 4.8202V5.2L5.11111 6.52121L4.76768 6.33131L3.05859 3.09899L1.98788 3.66465L2.79596 5.16768L0.606061 3.91919L0 4.9697L2.19394 6.23434L0.496969 6.29495L0.537374 7.50707L4.17374 7.37778L4.50505 7.57172V10.2061L4.17374 10.4L0.537374 10.2707L0.496969 11.4828L2.19394 11.5434L0 12.8081L0.606061 13.8586L2.8 12.5899L1.99192 14.0929L3.06263 14.6586L4.77172 11.4263L5.10303 11.2364L7.38586 12.5576V12.9374L5.45858 16.0242L6.48485 16.6626L7.38586 15.2242V17.7778H8.59798V15.2444L9.49899 16.6828L10.5253 16.0444L8.60606 12.9576V12.5778L10.8889 11.2566L11.2202 11.4465L12.9293 14.6788L14 14.1131L13.1919 12.6101L15.3939 13.8586L16 12.8081L13.8061 11.5434L15.503 11.4828ZM10.2828 9.50707L9.21212 8.88889L10.2828 8.27071V9.50707ZM9.67677 7.2202L8.60606 7.83838V6.60202L9.67677 7.2202ZM7.39394 6.60202V7.83838L6.32323 7.2202L7.39394 6.60202ZM5.71717 8.27071L6.78788 8.88889L5.71717 9.50707V8.27071ZM6.32323 10.5576L7.39394 9.93939V11.1758L6.32323 10.5576ZM8.60606 11.1758V9.93939L9.67677 10.5576L8.60606 11.1758Z" fill="black"/>
</svg>
