<svg width="17" height="14" viewBox="0 0 17 14" fill="none" xmlns="http://www.w3.org/2000/svg">
<path d="M8.49744 9.26232C8.03947 9.26232 7.59178 9.39813 7.21099 9.65256C6.8302 9.907 6.53341 10.2686 6.35815 10.6918C6.18289 11.1149 6.13703 11.5804 6.22638 12.0296C6.31572 12.4788 6.53626 12.8914 6.8601 13.2152C7.18393 13.5391 7.59652 13.7596 8.0457 13.8489C8.49487 13.9383 8.96045 13.8924 9.38356 13.7172C9.80667 13.5419 10.1683 13.2451 10.4227 12.8643C10.6772 12.4835 10.813 12.0358 10.813 11.5779C10.8126 10.9639 10.5685 10.3752 10.1343 9.94101C9.70015 9.50685 9.11143 9.26275 8.49744 9.26232V9.26232Z" fill="black"/>
<path d="M3.59719 6.68222C3.48661 6.78926 3.39847 6.91727 3.33794 7.05877C3.27741 7.20026 3.2457 7.35241 3.24466 7.50631C3.24362 7.66021 3.27327 7.81277 3.33188 7.95508C3.3905 8.09738 3.47689 8.22657 3.58602 8.33509C3.69515 8.44361 3.82482 8.52929 3.96745 8.5871C4.11008 8.64492 4.26281 8.67372 4.4167 8.67182C4.57059 8.66992 4.72256 8.63736 4.86371 8.57604C5.00487 8.51472 5.13239 8.42587 5.2388 8.31469C6.11141 7.46642 7.2804 6.99186 8.49736 6.99186C9.71433 6.99186 10.8833 7.46642 11.7559 8.31469C11.8632 8.42332 11.991 8.50948 12.1319 8.56812C12.2728 8.62677 12.424 8.65672 12.5767 8.65623C12.8054 8.6562 13.0289 8.58845 13.2192 8.46151C13.4094 8.33457 13.5578 8.15414 13.6456 7.94297C13.7334 7.7318 13.7567 7.49936 13.7125 7.27497C13.6684 7.05057 13.5588 6.84428 13.3975 6.68211C12.0838 5.40944 10.3264 4.69782 8.49734 4.69785C6.66824 4.69787 4.91091 5.40952 3.59719 6.68222V6.68222Z" fill="black"/>
<path d="M16.6538 3.43049C15.5911 2.34447 14.3222 1.48161 12.9216 0.892524C11.5209 0.303442 10.0168 0 8.49729 0C6.97781 0 5.47364 0.303442 4.073 0.892524C2.67236 1.48161 1.40347 2.34447 0.340754 3.43049C0.232502 3.53831 0.14666 3.66649 0.0881767 3.80763C0.0296936 3.94878 -0.000273792 4.10011 1.88483e-06 4.2529C0.000277561 4.40568 0.0307909 4.5569 0.0897829 4.69784C0.148775 4.83877 0.235079 4.96664 0.34372 5.07407C0.452361 5.18149 0.58119 5.26636 0.722782 5.32376C0.864373 5.38116 1.01593 5.40997 1.1687 5.40853C1.32148 5.40709 1.47246 5.37542 1.61295 5.31536C1.75343 5.25529 1.88063 5.16801 1.98723 5.05855C3.72761 3.35813 6.06422 2.40613 8.4974 2.40613C10.9306 2.40613 13.2672 3.35813 15.0076 5.05855C15.1139 5.16916 15.2411 5.25752 15.3819 5.31852C15.5227 5.37952 15.6742 5.41192 15.8276 5.41386C15.981 5.4158 16.1333 5.38723 16.2755 5.32981C16.4178 5.27239 16.5473 5.18726 16.6563 5.07938C16.7654 4.9715 16.852 4.84301 16.911 4.70139C16.97 4.55977 17.0002 4.40783 17 4.25441C16.9998 4.10099 16.969 3.94914 16.9096 3.8077C16.8502 3.66626 16.7632 3.53804 16.6538 3.43049V3.43049Z" fill="black"/>
</svg>
