<svg width="20" height="17" viewBox="0 0 20 17" fill="none" xmlns="http://www.w3.org/2000/svg">
<path d="M5.81583 7.43233C6.47376 6.245 6.04461 4.74912 4.85728 4.09118C3.66995 3.43325 2.17407 3.8624 1.51613 5.04973C0.858193 6.23706 1.28735 7.73294 2.47468 8.39088C3.66201 9.04882 5.15789 8.61966 5.81583 7.43233Z" fill="black"/>
<path d="M5.45638 1.85988L9.4872 3.7524C9.63467 3.82613 9.68382 4.02276 9.56093 4.14565C8.77443 4.90757 6.46409 7.21791 6.36577 7.36538L5.33349 8.64344C4.91566 9.18416 4.66988 9.79861 4.62073 10.4376C5.11229 10.6097 5.43181 11.0029 5.67759 11.2733C5.97252 11.642 6.09542 11.7403 6.3412 11.7403C6.61156 11.7403 6.70987 11.6174 7.00481 11.2733C7.32432 10.8801 7.79131 10.3148 8.67612 10.3148C9.58551 10.3148 10.0279 10.8555 10.3474 11.2733C10.6424 11.642 10.7653 11.7403 11.011 11.7403C11.2814 11.7403 11.3797 11.6174 11.6747 11.2733C11.9942 10.8801 12.4611 10.3148 13.346 10.3148C14.2554 10.3148 14.6978 10.8555 15.0173 11.2733C15.3122 11.642 15.4351 11.7403 15.6809 11.7403C15.9267 11.7403 16.0496 11.642 16.3199 11.2979L10.8636 6.87382C10.6669 6.72635 10.4703 6.57888 10.2491 6.48057C10.1262 6.43141 10.1017 6.25936 10.2 6.18563C10.7161 5.66949 12.1416 4.21938 12.1662 4.21938C12.1662 4.21938 12.3628 3.89986 12.3874 3.72782C12.3874 3.70324 12.3874 3.55577 12.3874 3.53119C12.3628 3.30999 12.2891 3.08879 12.1171 2.91674C12.1171 2.91674 11.8713 2.72011 11.7975 2.69554L6.29204 0.0902545C5.80048 -0.130949 5.2106 0.0656765 4.9894 0.557239C4.74362 1.0488 4.96482 1.63868 5.45638 1.85988Z" fill="black"/>
<path d="M1.62216 13.4607C2.80191 13.4607 2.80191 12.0352 3.98166 12.0352C5.16141 12.0352 5.16141 13.4607 6.34116 13.4607C7.52091 13.4607 7.52091 12.0352 8.70066 12.0352C9.88041 12.0352 9.8804 13.4607 11.0602 13.4607C12.2399 13.4607 12.2399 12.0352 13.4197 12.0352C14.5994 12.0352 14.5994 13.4607 15.7792 13.4607C16.9589 13.4607 16.9589 12.0352 18.1387 12.0352C18.5811 12.0352 18.8514 12.2318 19.0972 12.5022C19.3184 12.7234 19.6871 12.5759 19.6871 12.2564C19.6871 12.1581 19.6625 12.0844 19.5888 12.0106C19.1709 11.5928 18.9006 10.9538 18.1141 10.9538C16.9343 10.9538 16.9343 12.3793 15.7546 12.3793C14.5748 12.3793 14.5748 10.9538 13.3951 10.9538C12.2153 10.9538 12.2153 12.3793 11.0356 12.3793C9.85583 12.3793 9.85583 10.9538 8.67608 10.9538C7.49633 10.9538 7.49633 12.3793 6.31658 12.3793C5.13683 12.3793 5.13683 10.9538 3.95708 10.9538C2.77733 10.9538 2.77733 12.3793 1.59758 12.3793C1.15517 12.3793 0.860234 12.1581 0.614453 11.8877C0.39325 11.642 0 11.7894 0 12.1335C0 12.2318 0.0491564 12.3302 0.0983126 12.3793C0.565297 12.8217 0.811078 13.4607 1.62216 13.4607Z" fill="black"/>
<path d="M19.5888 15.5745C19.1709 15.1566 18.9006 14.5176 18.1141 14.5176C16.9343 14.5176 16.9343 15.9431 15.7546 15.9431C14.5748 15.9431 14.5748 14.5176 13.3951 14.5176C12.2153 14.5176 12.2153 15.9431 11.0356 15.9431C9.85583 15.9431 9.85583 14.5176 8.67608 14.5176C7.49633 14.5176 7.49633 15.9431 6.31658 15.9431C5.13683 15.9431 5.13683 14.5176 3.95708 14.5176C2.77733 14.5176 2.77733 15.9431 1.59758 15.9431C1.15517 15.9431 0.860234 15.7219 0.614453 15.4516C0.39325 15.2058 0 15.3533 0 15.6974C0 15.7957 0.0491564 15.894 0.0983126 15.9431C0.540719 16.361 0.7865 17 1.573 17C2.75275 17 2.75275 15.5745 3.9325 15.5745C5.11225 15.5745 5.11225 17 6.292 17C7.47175 17 7.47175 15.5745 8.6515 15.5745C9.83125 15.5745 9.83125 17 11.011 17C12.1907 17 12.1907 15.5745 13.3705 15.5745C14.5502 15.5745 14.5502 17 15.73 17C16.9097 17 16.9097 15.5745 18.0895 15.5745C18.5319 15.5745 18.8023 15.7711 19.048 16.0415C19.2692 16.2627 19.6379 16.1152 19.6379 15.7957C19.6871 15.7465 19.6625 15.6482 19.5888 15.5745Z" fill="black"/>
</svg>
